<?xml version="1.0" encoding="UTF-8" standalone="no"?>
<!-- Created with Inkscape (http://www.inkscape.org/) -->

<svg
   width="3.2346573mm"
   height="7.6949768mm"
   viewBox="0 0 3.2346573 7.6949768"
   version="1.1"
   id="svg409"
   inkscape:export-filename="balloon.svg"
   inkscape:export-xdpi="96"
   inkscape:export-ydpi="96"
   xmlns:inkscape="http://www.inkscape.org/namespaces/inkscape"
   xmlns:sodipodi="http://sodipodi.sourceforge.net/DTD/sodipodi-0.dtd"
   xmlns="http://www.w3.org/2000/svg"
   xmlns:svg="http://www.w3.org/2000/svg">
  <sodipodi:namedview
     id="namedview411"
     pagecolor="#505050"
     bordercolor="#eeeeee"
     borderopacity="1"
     inkscape:showpageshadow="0"
     inkscape:pageopacity="0"
     inkscape:pagecheckerboard="0"
     inkscape:deskcolor="#505050"
     inkscape:document-units="mm"
     showgrid="false" />
  <defs
     id="defs406" />
  <g
     inkscape:label="Layer 1"
     inkscape:groupmode="layer"
     id="layer1"
     transform="translate(-125.48852,-194.99148)">
    <path
       d="m 126.83372,195.0029 c -0.13541,0.0242 -0.29586,0.0788 -0.42725,0.14584 -0.49255,0.25188 -0.82148,0.73382 -0.90368,1.32339 -0.029,0.21135 -0.0137,0.4336 0.0451,0.65741 0.046,0.17468 0.1,0.3135 0.1959,0.50533 0.18137,0.36263 0.53367,0.86095 0.81341,1.15183 0.11689,0.12245 0.3547,0.29089 0.4087,0.29089 0.007,0 0.0161,0.007 0.021,0.0148 0.009,0.0172 -0.0185,0.0694 -0.10562,0.19886 -0.0572,0.0858 -0.0597,0.0983 -0.0169,0.0983 0.0169,0 0.0347,0.004 0.0403,0.009 0.008,0.008 0.0387,0.0148 0.12494,0.0273 0.0298,0.004 0.0306,0.005 0.025,0.025 -0.009,0.0273 -0.0137,3.1763 -0.005,3.20829 0.007,0.0281 0.0282,0.0366 0.0387,0.0156 0.004,-0.008 0.009,-0.72213 0.0113,-1.61039 0.002,-1.04888 0.006,-1.59866 0.0121,-1.60414 0.006,-0.005 0.0322,-0.002 0.079,0.009 l 0.0717,0.0156 0.0314,-0.0296 c 0.0177,-0.0172 0.0581,-0.0429 0.0903,-0.0585 0.0403,-0.0195 0.0589,-0.0327 0.0605,-0.0436 0.002,-0.0101 -0.0178,-0.0406 -0.0556,-0.085 -0.075,-0.0905 -0.12009,-0.15517 -0.12009,-0.17234 0,-0.009 0.0145,-0.0203 0.0459,-0.0335 0.16364,-0.0678 0.38616,-0.27606 0.62317,-0.581 0.19267,-0.24876 0.3942,-0.55914 0.52075,-0.80245 0.19511,-0.37433 0.26443,-0.62698 0.26443,-0.9561 -8e-4,-0.29945 -0.0298,-0.47958 -0.11446,-0.69794 -0.0395,-0.10295 -0.11851,-0.25191 -0.1814,-0.34314 -0.24667,-0.35796 -0.6441,-0.61529 -1.04637,-0.67847 -0.0992,-0.0156 -0.45871,-0.0156 -0.5474,0 z"
       fill="#ed8d8d"
       id="path272"
       style="stroke-width:0.264583" />
  </g>
</svg>
