<?xml version="1.0" encoding="UTF-8" standalone="no"?>
<svg
   width="160"
   height="160"
   viewBox="0 0 160 160"
   fill="none"
   version="1.1"
   id="svg203"
   sodipodi:docname="logo1_round.svg"
   inkscape:export-filename="../GitHub/vue-project/public/images/logo1_round.svg"
   inkscape:export-xdpi="30"
   inkscape:export-ydpi="30"
   xmlns:inkscape="http://www.inkscape.org/namespaces/inkscape"
   xmlns:sodipodi="http://sodipodi.sourceforge.net/DTD/sodipodi-0.dtd"
   xmlns="http://www.w3.org/2000/svg"
   xmlns:svg="http://www.w3.org/2000/svg">
  <sodipodi:namedview
     id="namedview205"
     pagecolor="#505050"
     bordercolor="#eeeeee"
     borderopacity="1"
     inkscape:showpageshadow="0"
     inkscape:pageopacity="0"
     inkscape:pagecheckerboard="0"
     inkscape:deskcolor="#505050"
     showgrid="false" />
  <g
     filter="url(#filter0_b_1_19)"
     id="g186" />
  <path
     d="M 74.890486,4.7072096 C 72.19554,5.1884879 69.002467,6.2747864 66.387558,7.609621 56.585073,12.622496 50.03885,22.213828 48.402822,33.947216 c -0.577639,4.20618 -0.272761,8.629303 0.898315,13.083494 0.914638,3.476364 1.989351,6.239238 3.898667,10.056814 3.609585,7.217063 10.620762,17.134339 16.188105,22.923365 2.326353,2.436934 7.059096,5.789024 8.133809,5.789024 0.144808,0 0.321203,0.139991 0.417564,0.294868 0.176398,0.341753 -0.36912,1.381707 -2.102036,3.957653 -1.138955,1.707113 -1.187399,1.955654 -0.337001,1.955654 0.337001,0 0.689796,0.07739 0.802482,0.186406 0.160077,0.155295 0.769834,0.294869 2.486426,0.542888 0.593964,0.07791 0.609759,0.109037 0.497603,0.497065 -0.1764,0.542889 -0.272759,63.213283 -0.09636,63.849893 0.144287,0.55869 0.561315,0.72929 0.77036,0.31015 0.08005,-0.15529 0.176399,-14.37146 0.224317,-32.04921 0.04845,-20.87451 0.128479,-31.815964 0.240639,-31.924948 0.112149,-0.09321 0.641879,-0.04643 1.572314,0.170598 l 1.428037,0.310676 0.625557,-0.589755 c 0.352795,-0.341735 1.155276,-0.853547 1.797157,-1.164224 0.801954,-0.38808 1.171074,-0.65189 1.203194,-0.868833 0.03212,-0.201675 -0.353323,-0.80722 -1.10736,-1.691844 -1.491752,-1.800307 -2.390067,-3.08828 -2.390067,-3.430033 0,-0.186389 0.288556,-0.403332 0.914113,-0.667142 3.256787,-1.350108 7.685176,-5.494157 12.402122,-11.562788 3.834431,-4.950739 7.845251,-11.127842 10.363801,-15.970108 3.88287,-7.449805 5.26246,-12.477949 5.26246,-19.027856 -0.0158,-5.959632 -0.59343,-9.54447 -2.27791,-13.890189 -0.78615,-2.048853 -2.35847,-5.0134 -3.61011,-6.828986 C 101.69988,11.085987 93.79039,5.9646403 85.784536,4.7072096 c -1.973556,-0.3101444 -9.129012,-0.3101444 -10.89405,0 z"
     fill="#ed8d8d"
     id="path190"
     style="stroke-width:5.26562" />
  <defs
     id="defs201">
    <filter
       id="filter0_b_1_19"
       x="24.292999"
       y="17.3936"
       width="114.216"
       height="122.905"
       filterUnits="userSpaceOnUse"
       color-interpolation-filters="sRGB">
      <feFlood
         flood-opacity="0"
         result="BackgroundImageFix"
         id="feFlood192" />
      <feGaussianBlur
         in="BackgroundImageFix"
         stdDeviation="2"
         id="feGaussianBlur194" />
      <feComposite
         in2="SourceAlpha"
         operator="in"
         result="effect1_backgroundBlur_1_19"
         id="feComposite196" />
      <feBlend
         mode="normal"
         in="SourceGraphic"
         in2="effect1_backgroundBlur_1_19"
         result="shape"
         id="feBlend198" />
    </filter>
  </defs>
</svg>
