<svg width="143" height="128" viewBox="0 0 143 128" fill="none" xmlns="http://www.w3.org/2000/svg">
<rect width="143" height="127" fill="#8D629C"/>
<g filter="url(#filter0_b_1_19)">
<path d="M45.9463 11.3994H49.7549V6.59473H52.6406V11.3994H57.7676V14.2852H52.6406V24.1143H57.7676V27H52.6406C52.25 27 51.8789 26.9268 51.5273 26.7803C51.1758 26.624 50.8682 26.4189 50.6045 26.165C50.3408 25.9014 50.1309 25.5938 49.9746 25.2422C49.8281 24.8906 49.7549 24.5146 49.7549 24.1143V14.2852H45.9463V11.3994ZM75.7852 20.6719H65.458V24.1143H75.7852V27H65.458C65.0674 27 64.6963 26.9268 64.3447 26.7803C63.9932 26.624 63.6855 26.4189 63.4219 26.165C63.168 25.9014 62.9629 25.5938 62.8066 25.2422C62.6602 24.8906 62.5869 24.5146 62.5869 24.1143V14.2852C62.5869 13.8848 62.6602 13.5088 62.8066 13.1572C62.9629 12.8057 63.168 12.5029 63.4219 12.249C63.6855 11.9854 63.9932 11.7803 64.3447 11.6338C64.6963 11.4775 65.0674 11.3994 65.458 11.3994H72.8994C73.2998 11.3994 73.6758 11.4775 74.0273 11.6338C74.3789 11.7803 74.6816 11.9854 74.9355 12.249C75.1992 12.5029 75.4043 12.8057 75.5508 13.1572C75.707 13.5088 75.7852 13.8848 75.7852 14.2852V20.6719ZM65.458 14.2852V17.7861H72.8994V14.2852H65.458ZM83.4756 5.39355V27H80.6045V5.39355H83.4756ZM91.1514 5.39355V27H88.2803V5.39355H91.1514ZM38.3291 62.2988L41.5957 54.5938L35.4727 40.3994H38.5049L43.0605 51.1367L47.6162 40.3994H50.6484L41.2002 62.2988H38.3291ZM71.6396 40.3994H74.5107V53.1143H82.5527V40.3994H85.4385V56H82.5527V53.3633C82.5234 53.7246 82.4258 54.0664 82.2598 54.3887C82.0938 54.7109 81.8789 54.9941 81.6152 55.2383C81.3613 55.4727 81.0684 55.6582 80.7363 55.7949C80.4043 55.9316 80.0527 56 79.6816 56H74.5107C74.1201 56 73.749 55.9268 73.3975 55.7803C73.0459 55.624 72.7383 55.4189 72.4746 55.165C72.2207 54.9014 72.0156 54.5938 71.8594 54.2422C71.7129 53.8906 71.6396 53.5146 71.6396 53.1143V40.3994ZM93.1143 43.2852V56H90.2432V40.3994H93.1143V43.1533C93.1338 42.7725 93.2217 42.416 93.3779 42.084C93.5342 41.7422 93.7393 41.4492 93.9932 41.2051C94.2568 40.9512 94.5596 40.7559 94.9014 40.6191C95.2432 40.4727 95.6094 40.3994 96 40.3994H99.0615C99.4619 40.3994 99.833 40.4775 100.175 40.6338C100.526 40.7803 100.834 40.9854 101.098 41.249C101.361 41.5029 101.566 41.8057 101.713 42.1572C101.869 42.5088 101.947 42.8848 101.947 43.2852V45.9219H99.0615V43.2852H93.1143ZM60.1846 85L52.7432 78.335V85H49.8721V63.3936H52.7432V75.5518L59.584 69.3994H63.6416L55.2627 76.9287L64.2422 85H60.1846ZM69.3691 69.3994V85H66.4834V69.3994H69.3691ZM66.3369 63.3936H69.5156V66.3965H66.3369V63.3936ZM74.335 72.2852C74.335 71.8848 74.4082 71.5088 74.5547 71.1572C74.7109 70.8057 74.916 70.5029 75.1699 70.249C75.4336 69.9854 75.7412 69.7803 76.0928 69.6338C76.4443 69.4775 76.8154 69.3994 77.2061 69.3994H85.248V63.3936H88.1338V85H85.248V82.3633C85.2188 82.7246 85.1211 83.0664 84.9551 83.3887C84.7891 83.7109 84.5742 83.9941 84.3105 84.2383C84.0566 84.4727 83.7637 84.6582 83.4316 84.7949C83.0996 84.9316 82.748 85 82.377 85H77.2061C76.8154 85 76.4443 84.9268 76.0928 84.7803C75.7412 84.624 75.4336 84.4189 75.1699 84.165C74.916 83.9014 74.7109 83.5938 74.5547 83.2422C74.4082 82.8906 74.335 82.5146 74.335 82.1143V72.2852ZM77.2061 82.1143H85.248V72.2852H77.2061V82.1143ZM21.293 107.188C21.293 106.788 21.3662 106.417 21.5127 106.075C21.6689 105.724 21.874 105.416 22.1279 105.152C22.3916 104.889 22.6992 104.684 23.0508 104.537C23.4023 104.381 23.7734 104.303 24.1641 104.303H31.6055V101.285H22.1865V98.3994H31.6055C32.0059 98.3994 32.3818 98.4775 32.7334 98.6338C33.085 98.7803 33.3877 98.9854 33.6416 99.249C33.9053 99.5029 34.1104 99.8057 34.2568 100.157C34.4131 100.509 34.4912 100.885 34.4912 101.285V114H31.6055V111.363C31.5762 111.725 31.4785 112.066 31.3125 112.389C31.1465 112.711 30.9316 112.994 30.668 113.238C30.4141 113.473 30.1211 113.658 29.7891 113.795C29.457 113.932 29.1055 114 28.7344 114H24.1641C23.7734 114 23.4023 113.927 23.0508 113.78C22.6992 113.624 22.3916 113.419 22.1279 113.165C21.874 112.901 21.6689 112.594 21.5127 112.242C21.3662 111.891 21.293 111.515 21.293 111.114V107.188ZM24.1641 111.114H31.6055V107.188H24.1641V111.114ZM57.7236 111.114V107.496H50.8828C50.4824 107.496 50.1064 107.423 49.7549 107.276C49.4033 107.12 49.0957 106.915 48.832 106.661C48.5781 106.397 48.373 106.09 48.2168 105.738C48.0703 105.387 47.9971 105.011 47.9971 104.61V101.285C47.9971 100.885 48.0703 100.509 48.2168 100.157C48.373 99.8057 48.5781 99.5029 48.832 99.249C49.0957 98.9854 49.4033 98.7803 49.7549 98.6338C50.1064 98.4775 50.4824 98.3994 50.8828 98.3994H60.0088V101.285H50.8828V104.61H57.7236C58.124 104.61 58.4951 104.688 58.8369 104.845C59.1885 104.991 59.4961 105.196 59.7598 105.46C60.0234 105.714 60.2285 106.017 60.375 106.368C60.5312 106.72 60.6094 107.096 60.6094 107.496V111.114C60.6094 111.515 60.5312 111.891 60.375 112.242C60.2285 112.594 60.0234 112.901 59.7598 113.165C59.4961 113.419 59.1885 113.624 58.8369 113.78C58.4951 113.927 58.124 114 57.7236 114H47.9971V111.114H57.7236ZM64.2129 98.3994H68.0215V93.5947H70.9072V98.3994H76.0342V101.285H70.9072V111.114H76.0342V114H70.9072C70.5166 114 70.1455 113.927 69.7939 113.78C69.4424 113.624 69.1348 113.419 68.8711 113.165C68.6074 112.901 68.3975 112.594 68.2412 112.242C68.0947 111.891 68.0215 111.515 68.0215 111.114V101.285H64.2129V98.3994ZM101.713 101.285V114H98.8418V98.3994H101.713V101.153C101.732 100.772 101.82 100.416 101.977 100.084C102.133 99.7422 102.338 99.4492 102.592 99.2051C102.855 98.9512 103.158 98.7559 103.5 98.6191C103.842 98.4727 104.208 98.3994 104.599 98.3994H107.66C108.061 98.3994 108.432 98.4775 108.773 98.6338C109.125 98.7803 109.433 98.9854 109.696 99.249C109.96 99.5029 110.165 99.8057 110.312 100.157C110.468 100.509 110.546 100.885 110.546 101.285V103.922H107.66V101.285H101.713ZM115.189 120.299L118.456 112.594L112.333 98.3994H115.365L119.921 109.137L124.477 98.3994H127.509L118.061 120.299H115.189Z" fill="#EDC6C6"/>
</g>
<path d="M86.0843 98.0442C85.5725 98.1356 84.9661 98.3419 84.4695 98.5954C82.6079 99.5474 81.3647 101.369 81.054 103.597C80.9443 104.396 81.0022 105.236 81.2246 106.082C81.3983 106.742 81.6024 107.267 81.965 107.992C82.6505 109.362 83.982 111.246 85.0393 112.345C85.4811 112.808 86.3799 113.445 86.584 113.445C86.6115 113.445 86.645 113.471 86.6633 113.501C86.6968 113.565 86.5932 113.763 86.2641 114.252C86.0478 114.576 86.0386 114.624 86.2001 114.624C86.2641 114.624 86.3311 114.638 86.3525 114.659C86.3829 114.688 86.4987 114.715 86.8247 114.762C86.9375 114.777 86.9405 114.783 86.9192 114.856C86.8857 114.96 86.8674 126.861 86.9009 126.982C86.9283 127.088 87.0075 127.121 87.0472 127.041C87.0624 127.012 87.0807 124.312 87.0898 120.955C87.099 116.99 87.1142 114.912 87.1355 114.892C87.1568 114.874 87.2574 114.883 87.4341 114.924L87.7053 114.983L87.8241 114.871C87.8911 114.806 88.0435 114.709 88.1654 114.65C88.3177 114.576 88.3878 114.526 88.3939 114.485C88.4 114.447 88.3268 114.332 88.1836 114.164C87.9003 113.822 87.7297 113.577 87.7297 113.512C87.7297 113.477 87.7845 113.436 87.9033 113.386C88.5218 113.129 89.3628 112.342 90.2586 111.19C90.9868 110.25 91.7485 109.077 92.2268 108.157C92.9642 106.742 93.2262 105.787 93.2262 104.543C93.2232 103.412 93.1135 102.731 92.7936 101.905C92.6443 101.516 92.3457 100.953 92.108 100.608C91.1757 99.2556 89.6736 98.283 88.1532 98.0442C87.7784 97.9853 86.4195 97.9853 86.0843 98.0442Z" fill="#ED8D8D"/>
<path d="M59.0843 40.0442C58.5725 40.1356 57.9661 40.3419 57.4695 40.5954C55.6079 41.5474 54.3647 43.3689 54.054 45.5972C53.9443 46.396 54.0022 47.236 54.2246 48.0819C54.3983 48.7421 54.6024 49.2668 54.965 49.9918C55.6505 51.3624 56.982 53.2458 58.0393 54.3452C58.4811 54.808 59.3799 55.4446 59.584 55.4446C59.6115 55.4446 59.645 55.4712 59.6633 55.5006C59.6968 55.5655 59.5932 55.763 59.2641 56.2522C59.0478 56.5764 59.0386 56.6236 59.2001 56.6236C59.2641 56.6236 59.3311 56.6383 59.3525 56.659C59.3829 56.6885 59.4987 56.715 59.8247 56.7621C59.9375 56.7769 59.9405 56.7828 59.9192 56.8565C59.8857 56.9596 59.8674 68.8614 59.9009 68.9823C59.9283 69.0884 60.0075 69.1208 60.0472 69.0412C60.0624 69.0117 60.0807 66.3119 60.0898 62.9547C60.099 58.9904 60.1142 56.9125 60.1355 56.8918C60.1568 56.8741 60.2574 56.883 60.4341 56.9242L60.7053 56.9832L60.8241 56.8712C60.8911 56.8063 61.0435 56.7091 61.1654 56.6501C61.3177 56.5764 61.3878 56.5263 61.3939 56.4851C61.4 56.4468 61.3268 56.3318 61.1836 56.1638C60.9003 55.8219 60.7297 55.5773 60.7297 55.5124C60.7297 55.477 60.7845 55.4358 60.9033 55.3857C61.5218 55.1293 62.3628 54.3423 63.2586 53.1898C63.9868 52.2496 64.7485 51.0765 65.2268 50.1569C65.9642 48.7421 66.2262 47.7872 66.2262 46.5433C66.2232 45.4115 66.1135 44.7307 65.7936 43.9054C65.6443 43.5163 65.3457 42.9533 65.108 42.6085C64.1757 41.2556 62.6736 40.283 61.1532 40.0442C60.7784 39.9853 59.4195 39.9853 59.0843 40.0442Z" fill="#ED8D8D"/>
<defs>
<filter id="filter0_b_1_19" x="17.293" y="1.39355" width="114.216" height="122.905" filterUnits="userSpaceOnUse" color-interpolation-filters="sRGB">
<feFlood flood-opacity="0" result="BackgroundImageFix"/>
<feGaussianBlur in="BackgroundImageFix" stdDeviation="2"/>
<feComposite in2="SourceAlpha" operator="in" result="effect1_backgroundBlur_1_19"/>
<feBlend mode="normal" in="SourceGraphic" in2="effect1_backgroundBlur_1_19" result="shape"/>
</filter>
</defs>
</svg>
